<?xml version="1.0" standalone="no"?>
<!DOCTYPE svg PUBLIC "-//W3C//DTD SVG 20010904//EN"
 "http://www.w3.org/TR/2001/REC-SVG-20010904/DTD/svg10.dtd">
<svg version="1.0" xmlns="http://www.w3.org/2000/svg"
 width="512.000000pt" height="512.000000pt" viewBox="0 0 512.000000 512.000000"
 preserveAspectRatio="xMidYMid meet">
<metadata>
Created by potrace 1.14, written by Peter Selinger 2001-2017
</metadata>
<g transform="translate(0.000000,512.000000) scale(0.100000,-0.100000)"
fill="#000000" stroke="none">
<path d="M0 2560 l0 -2560 2560 0 2560 0 0 2560 0 2560 -2560 0 -2560 0 0
-2560z m1667 1628 c63 -31 160 -117 185 -163 7 -13 54 -81 104 -152 78 -110
193 -274 244 -349 73 -106 234 -338 291 -419 38 -55 89 -128 112 -161 23 -34
70 -103 105 -152 34 -50 62 -96 62 -102 0 -7 -278 -10 -880 -10 -522 0 -880 4
-880 9 0 8 68 106 204 291 26 36 55 71 64 78 12 9 91 12 314 12 166 0 298 4
298 9 0 8 -64 101 -148 216 -16 22 -64 88 -106 147 -86 118 -112 146 -125 132
-13 -15 -299 -399 -381 -513 -201 -278 -287 -386 -308 -385 -12 0 -141 1 -287
2 -213 2 -265 5 -265 15 0 12 186 279 357 511 32 44 83 116 114 161 31 45 90
129 131 186 40 57 80 114 88 126 83 124 288 397 322 429 84 79 160 113 257
114 52 0 75 -6 128 -32z m3143 -1780 c0 -6 -33 -52 -73 -102 -41 -50 -87 -109
-103 -131 -16 -22 -31 -42 -34 -45 -3 -3 -23 -26 -44 -52 l-38 -48 -549 0
c-310 0 -558 -4 -572 -9 -31 -12 -39 -34 -22 -58 13 -17 43 -18 507 -24 527
-7 518 -6 655 -62 194 -79 315 -226 329 -403 14 -187 -46 -320 -196 -431 -53
-40 -152 -84 -232 -104 -81 -21 -99 -22 -838 -20 -430 1 -756 5 -758 10 -3 10
179 248 251 327 l45 49 583 5 c520 5 588 7 621 23 114 52 98 155 -30 196 -61
19 -89 20 -541 21 -449 0 -482 2 -552 21 -116 32 -216 85 -280 149 -67 69 -97
128 -107 217 -14 125 24 233 109 314 47 45 168 117 219 131 133 36 118 36 893
37 565 1 757 -2 757 -11z"/>
</g>
</svg>
